0
SECTION
2
ENTITIES
0
LINE
8
OBRIS
10
0.000
20
0.000
30
0
11
353.256
21
0.000
31
0
0
LINE
8
OBRIS
10
353.256
20
0.000
30
0
11
353.256
21
1692.000
31
0
0
LINE
8
OBRIS
10
353.256
20
1692.000
30
0
11
0.000
21
1692.000
31
0
0
LINE
8
OBRIS
10
0.000
20
1692.000
30
0
11
0.000
21
0.000
31
0
0
LINE
8
UPOGIB
10
13.316
20
0.000
30
0
11
13.316
21
1692.000
31
0
0
TEXT
8
OPIS
10
10.316
20
10.000
30
0
40
8
1
GOR 90.0 R2
50
90
0
LINE
8
UPOGIB
10
21.880
20
0.000
30
0
11
21.880
21
1692.000
31
0
0
TEXT
8
OPIS
10
18.880
20
10.000
30
0
40
8
1
GOR 63.2 R10
50
90
0
LINE
8
UPOGIB
10
131.834
20
0.000
30
0
11
131.834
21
1692.000
31
0
0
TEXT
8
OPIS
10
128.834
20
10.000
30
0
40
8
1
GOR 26.8 R40
50
90
0
LINE
8
UPOGIB
10
181.422
20
0.000
30
0
11
181.422
21
1692.000
31
0
0
TEXT
8
OPIS
10
178.422
20
10.000
30
0
40
8
1
GOR 26.8 R40
50
90
0
LINE
8
UPOGIB
10
291.376
20
0.000
30
0
11
291.376
21
1692.000
31
0
0
TEXT
8
OPIS
10
288.376
20
10.000
30
0
40
8
1
GOR 63.2 R10
50
90
0
LINE
8
UPOGIB
10
339.940
20
0.000
30
0
11
339.940
21
1692.000
31
0
0
TEXT
8
OPIS
10
336.940
20
10.000
30
0
40
8
1
GOR 90.0 R2
50
90
0
CIRCLE
8
OBRIS
10
156.628
20
16.000
30
0
40
2.050
0
CIRCLE
8
OBRIS
10
156.628
20
1676.000
30
0
40
2.050
0
ENDSEC
0
EOF
