0
SECTION
2
ENTITIES
0
LINE
8
OBRIS
10
80.000
20
0.000
30
0
11
298.121
21
0.000
31
0
0
LINE
8
OBRIS
10
298.121
20
0.000
30
0
11
298.121
21
1600.000
31
0
0
LINE
8
OBRIS
10
298.121
20
1600.000
30
0
11
80.000
21
1600.000
31
0
0
LINE
8
OBRIS
10
0.000
20
1520.000
30
0
11
0.000
21
80.000
31
0
0
ARC
8
OBRIS
10
80.000
20
80.000
30
0
40
80.000
50
180
51
270
0
ARC
8
OBRIS
10
80.000
20
1520.000
30
0
40
80.000
50
90
51
180
0
LINE
8
UPOGIB
10
257.560
20
0.000
30
0
11
257.560
21
1600.000
31
0
0
TEXT
8
OPIS
10
254.560
20
10.000
30
0
40
8
1
DOL 90.0 R2
50
90
0
CIRCLE
8
OBRIS
10
70.000
20
30.000
30
0
40
2.050
0
CIRCLE
8
OBRIS
10
190.000
20
30.000
30
0
40
2.050
0
CIRCLE
8
OBRIS
10
70.000
20
345.000
30
0
40
2.050
0
CIRCLE
8
OBRIS
10
190.000
20
345.000
30
0
40
2.050
0
CIRCLE
8
OBRIS
10
70.000
20
660.000
30
0
40
2.050
0
CIRCLE
8
OBRIS
10
190.000
20
660.000
30
0
40
2.050
0
CIRCLE
8
OBRIS
10
70.000
20
975.000
30
0
40
2.050
0
CIRCLE
8
OBRIS
10
190.000
20
975.000
30
0
40
2.050
0
CIRCLE
8
OBRIS
10
70.000
20
1290.000
30
0
40
2.050
0
CIRCLE
8
OBRIS
10
190.000
20
1290.000
30
0
40
2.050
0
CIRCLE
8
OBRIS
10
278.121
20
20.000
30
0
40
5.250
0
CIRCLE
8
OBRIS
10
278.121
20
565.000
30
0
40
5.250
0
CIRCLE
8
OBRIS
10
278.121
20
1195.000
30
0
40
5.250
0
CIRCLE
8
OBRIS
10
278.121
20
1520.000
30
0
40
5.250
0
ENDSEC
0
EOF
