0
SECTION
2
ENTITIES
0
LINE
8
OBRIS
10
0.000
20
0.000
30
0
11
76.461
21
0.000
31
0
0
LINE
8
OBRIS
10
76.461
20
0.000
30
0
11
76.461
21
180.000
31
0
0
LINE
8
OBRIS
10
76.461
20
180.000
30
0
11
0.000
21
180.000
31
0
0
LINE
8
OBRIS
10
0.000
20
180.000
30
0
11
0.000
21
0.000
31
0
0
LINE
8
UPOGIB
10
38.231
20
0.000
30
0
11
38.231
21
180.000
31
0
0
TEXT
8
OPIS
10
35.231
20
10.000
30
0
40
8
1
DOL 90.0 R2
50
90
0
CIRCLE
8
OBRIS
10
20.000
20
150.000
30
0
40
2.050
0
CIRCLE
8
OBRIS
10
20.000
20
30.000
30
0
40
2.050
0
CIRCLE
8
OBRIS
10
56.461
20
90.000
30
0
40
2.050
0
ENDSEC
0
EOF
